<svg width="240" height="73" viewBox="0 0 240 73" fill="none" xmlns="http://www.w3.org/2000/svg">
<rect width="231" height="73" rx="36.5" fill="url(#paint0_linear_1_5)"/>
<path d="M71.8253 39.6477V31.9091H73.8366V45H71.8253V42.7841H71.6889C71.3821 43.4489 70.9048 44.0142 70.2571 44.4801C69.6094 44.9403 68.7912 45.1705 67.8026 45.1705C66.9844 45.1705 66.2571 44.9915 65.6207 44.6335C64.9844 44.2699 64.4844 43.7244 64.1207 42.9972C63.7571 42.2642 63.5753 41.3409 63.5753 40.2273V31.9091H65.5866V40.0909C65.5866 41.0455 65.8537 41.8068 66.3878 42.375C66.9276 42.9432 67.6151 43.2273 68.4503 43.2273C68.9503 43.2273 69.4588 43.0994 69.9759 42.8438C70.4986 42.5881 70.9361 42.196 71.2884 41.6676C71.6463 41.1392 71.8253 40.4659 71.8253 39.6477ZM77.5206 49.9091V31.9091H79.4638V33.9886H79.7024C79.8501 33.7614 80.0547 33.4716 80.3161 33.1193C80.5831 32.7614 80.9638 32.4432 81.4581 32.1648C81.9581 31.8807 82.6342 31.7386 83.4865 31.7386C84.5888 31.7386 85.5604 32.0142 86.4013 32.5653C87.2422 33.1165 87.8984 33.8977 88.37 34.9091C88.8416 35.9205 89.0774 37.1136 89.0774 38.4886C89.0774 39.875 88.8416 41.0767 88.37 42.0938C87.8984 43.1051 87.245 43.8892 86.4098 44.446C85.5746 44.9972 84.6115 45.2727 83.5206 45.2727C82.6797 45.2727 82.0064 45.1335 81.5007 44.8551C80.995 44.571 80.6058 44.25 80.3331 43.892C80.0604 43.5284 79.8501 43.2273 79.7024 42.9886H79.532V49.9091H77.5206ZM79.4979 38.4545C79.4979 39.4432 79.6428 40.3153 79.9325 41.071C80.2223 41.821 80.6456 42.4091 81.2024 42.8352C81.7592 43.2557 82.4411 43.4659 83.2479 43.4659C84.0888 43.4659 84.7905 43.2443 85.353 42.8011C85.9212 42.3523 86.3473 41.75 86.6314 40.9943C86.9212 40.233 87.0661 39.3864 87.0661 38.4545C87.0661 37.5341 86.924 36.7045 86.6399 35.9659C86.3615 35.2216 85.9382 34.6335 85.37 34.2017C84.8075 33.7642 84.1001 33.5455 83.2479 33.5455C82.4297 33.5455 81.7422 33.7528 81.1854 34.1676C80.6286 34.5767 80.2081 35.1506 79.924 35.8892C79.6399 36.6222 79.4979 37.4773 79.4979 38.4545ZM94.157 27.5455V45H92.1456V27.5455H94.157ZM103.159 45.2727C101.977 45.2727 100.94 44.9915 100.048 44.429C99.1619 43.8665 98.4688 43.0795 97.9688 42.0682C97.4744 41.0568 97.2273 39.875 97.2273 38.5227C97.2273 37.1591 97.4744 35.9687 97.9688 34.9517C98.4688 33.9347 99.1619 33.1449 100.048 32.5824C100.94 32.0199 101.977 31.7386 103.159 31.7386C104.341 31.7386 105.375 32.0199 106.261 32.5824C107.153 33.1449 107.847 33.9347 108.341 34.9517C108.841 35.9687 109.091 37.1591 109.091 38.5227C109.091 39.875 108.841 41.0568 108.341 42.0682C107.847 43.0795 107.153 43.8665 106.261 44.429C105.375 44.9915 104.341 45.2727 103.159 45.2727ZM103.159 43.4659C104.057 43.4659 104.795 43.2358 105.375 42.7756C105.955 42.3153 106.384 41.7102 106.662 40.9602C106.94 40.2102 107.08 39.3977 107.08 38.5227C107.08 37.6477 106.94 36.8324 106.662 36.0767C106.384 35.321 105.955 34.7102 105.375 34.2443C104.795 33.7784 104.057 33.5455 103.159 33.5455C102.261 33.5455 101.523 33.7784 100.943 34.2443C100.364 34.7102 99.9347 35.321 99.6562 36.0767C99.3778 36.8324 99.2386 37.6477 99.2386 38.5227C99.2386 39.3977 99.3778 40.2102 99.6562 40.9602C99.9347 41.7102 100.364 42.3153 100.943 42.7756C101.523 43.2358 102.261 43.4659 103.159 43.4659ZM116.013 45.3068C115.184 45.3068 114.431 45.1506 113.755 44.8381C113.079 44.5199 112.542 44.0625 112.144 43.4659C111.746 42.8636 111.548 42.1364 111.548 41.2841C111.548 40.5341 111.695 39.9261 111.991 39.4602C112.286 38.9886 112.681 38.6193 113.175 38.3523C113.67 38.0852 114.215 37.8864 114.812 37.7557C115.414 37.6193 116.019 37.5114 116.627 37.4318C117.423 37.3295 118.067 37.2528 118.562 37.2017C119.062 37.1449 119.425 37.0511 119.653 36.9205C119.886 36.7898 120.002 36.5625 120.002 36.2386V36.1705C120.002 35.3295 119.772 34.6761 119.312 34.2102C118.857 33.7443 118.167 33.5114 117.241 33.5114C116.281 33.5114 115.528 33.7216 114.982 34.142C114.437 34.5625 114.053 35.0114 113.832 35.4886L111.923 34.8068C112.263 34.0114 112.718 33.392 113.286 32.9489C113.86 32.5 114.485 32.1875 115.161 32.0114C115.843 31.8295 116.513 31.7386 117.173 31.7386C117.593 31.7386 118.076 31.7898 118.621 31.892C119.173 31.9886 119.704 32.1903 120.215 32.4972C120.732 32.804 121.161 33.267 121.502 33.8864C121.843 34.5057 122.013 35.3352 122.013 36.375V45H120.002V43.2273H119.9C119.763 43.5114 119.536 43.8153 119.218 44.1392C118.9 44.4631 118.477 44.7386 117.948 44.9659C117.42 45.1932 116.775 45.3068 116.013 45.3068ZM116.32 43.5C117.116 43.5 117.786 43.3438 118.332 43.0312C118.883 42.7188 119.298 42.3153 119.576 41.821C119.86 41.3267 120.002 40.8068 120.002 40.2614V38.4205C119.917 38.5227 119.729 38.6165 119.44 38.7017C119.156 38.7812 118.826 38.8523 118.451 38.9148C118.082 38.9716 117.721 39.0227 117.369 39.0682C117.022 39.108 116.741 39.142 116.525 39.1705C116.002 39.2386 115.513 39.3494 115.059 39.5028C114.61 39.6506 114.246 39.875 113.968 40.1761C113.695 40.4716 113.559 40.875 113.559 41.3864C113.559 42.0852 113.817 42.6136 114.335 42.9716C114.857 43.3239 115.519 43.5 116.32 43.5ZM130.628 45.2727C129.537 45.2727 128.574 44.9972 127.739 44.446C126.903 43.8892 126.25 43.1051 125.778 42.0938C125.307 41.0767 125.071 39.875 125.071 38.4886C125.071 37.1136 125.307 35.9205 125.778 34.9091C126.25 33.8977 126.906 33.1165 127.747 32.5653C128.588 32.0142 129.56 31.7386 130.662 31.7386C131.514 31.7386 132.188 31.8807 132.682 32.1648C133.182 32.4432 133.563 32.7614 133.824 33.1193C134.091 33.4716 134.298 33.7614 134.446 33.9886H134.616V27.5455H136.628V45H134.685V42.9886H134.446C134.298 43.2273 134.088 43.5284 133.815 43.892C133.543 44.25 133.153 44.571 132.648 44.8551C132.142 45.1335 131.469 45.2727 130.628 45.2727ZM130.901 43.4659C131.707 43.4659 132.389 43.2557 132.946 42.8352C133.503 42.4091 133.926 41.821 134.216 41.071C134.506 40.3153 134.651 39.4432 134.651 38.4545C134.651 37.4773 134.509 36.6222 134.224 35.8892C133.94 35.1506 133.52 34.5767 132.963 34.1676C132.406 33.7528 131.719 33.5455 130.901 33.5455C130.048 33.5455 129.338 33.7642 128.77 34.2017C128.207 34.6335 127.784 35.2216 127.5 35.9659C127.222 36.7045 127.082 37.5341 127.082 38.4545C127.082 39.3864 127.224 40.233 127.509 40.9943C127.798 41.75 128.224 42.3523 128.787 42.8011C129.355 43.2443 130.06 43.4659 130.901 43.4659ZM147.341 45V31.9091H149.284V33.9545H149.455C149.727 33.2557 150.168 32.7131 150.776 32.3267C151.384 31.9347 152.114 31.7386 152.966 31.7386C153.83 31.7386 154.548 31.9347 155.122 32.3267C155.702 32.7131 156.153 33.2557 156.477 33.9545H156.614C156.949 33.2784 157.452 32.7415 158.122 32.3438C158.793 31.9403 159.597 31.7386 160.534 31.7386C161.705 31.7386 162.662 32.1051 163.406 32.8381C164.151 33.5653 164.523 34.6989 164.523 36.2386V45H162.511V36.2386C162.511 35.2727 162.247 34.5824 161.719 34.1676C161.19 33.7528 160.568 33.5455 159.852 33.5455C158.932 33.5455 158.219 33.8239 157.713 34.3807C157.207 34.9318 156.955 35.6307 156.955 36.4773V45H154.909V36.0341C154.909 35.2898 154.668 34.6903 154.185 34.2358C153.702 33.7756 153.08 33.5455 152.318 33.5455C151.795 33.5455 151.307 33.6847 150.852 33.9631C150.403 34.2415 150.04 34.6278 149.761 35.1222C149.489 35.6108 149.352 36.1761 149.352 36.8182V45H147.341ZM168.2 49.9091V31.9091H170.143V33.9886H170.382C170.53 33.7614 170.734 33.4716 170.996 33.1193C171.263 32.7614 171.643 32.4432 172.138 32.1648C172.638 31.8807 173.314 31.7386 174.166 31.7386C175.268 31.7386 176.24 32.0142 177.081 32.5653C177.922 33.1165 178.578 33.8977 179.05 34.9091C179.521 35.9205 179.757 37.1136 179.757 38.4886C179.757 39.875 179.521 41.0767 179.05 42.0938C178.578 43.1051 177.925 43.8892 177.089 44.446C176.254 44.9972 175.291 45.2727 174.2 45.2727C173.359 45.2727 172.686 45.1335 172.18 44.8551C171.675 44.571 171.286 44.25 171.013 43.892C170.74 43.5284 170.53 43.2273 170.382 42.9886H170.212V49.9091H168.2ZM170.178 38.4545C170.178 39.4432 170.322 40.3153 170.612 41.071C170.902 41.821 171.325 42.4091 171.882 42.8352C172.439 43.2557 173.121 43.4659 173.928 43.4659C174.768 43.4659 175.47 43.2443 176.033 42.8011C176.601 42.3523 177.027 41.75 177.311 40.9943C177.601 40.233 177.746 39.3864 177.746 38.4545C177.746 37.5341 177.604 36.7045 177.32 35.9659C177.041 35.2216 176.618 34.6335 176.05 34.2017C175.487 33.7642 174.78 33.5455 173.928 33.5455C173.109 33.5455 172.422 33.7528 171.865 34.1676C171.308 34.5767 170.888 35.1506 170.604 35.8892C170.32 36.6222 170.178 37.4773 170.178 38.4545ZM188.689 45.2386C187.564 45.2386 186.561 45.0455 185.68 44.6591C184.805 44.2727 184.109 43.7358 183.592 43.0483C183.081 42.3551 182.803 41.5511 182.757 40.6364H184.905C184.95 41.1989 185.143 41.6847 185.484 42.0938C185.825 42.4972 186.271 42.8097 186.822 43.0312C187.374 43.2528 187.984 43.3636 188.655 43.3636C189.405 43.3636 190.07 43.233 190.649 42.9716C191.229 42.7102 191.683 42.3466 192.013 41.8807C192.342 41.4148 192.507 40.875 192.507 40.2614C192.507 39.6193 192.348 39.054 192.03 38.5653C191.712 38.071 191.246 37.6847 190.632 37.4062C190.018 37.1278 189.268 36.9886 188.382 36.9886H186.984V35.1136H188.382C189.075 35.1136 189.683 34.9886 190.206 34.7386C190.734 34.4886 191.146 34.1364 191.442 33.6818C191.743 33.2273 191.893 32.6932 191.893 32.0795C191.893 31.4886 191.763 30.9744 191.501 30.5369C191.24 30.0994 190.871 29.7585 190.393 29.5142C189.922 29.2699 189.365 29.1477 188.723 29.1477C188.121 29.1477 187.553 29.2585 187.018 29.4801C186.49 29.696 186.058 30.0114 185.723 30.4261C185.388 30.8352 185.206 31.3295 185.178 31.9091H183.132C183.166 30.9943 183.442 30.1932 183.959 29.5057C184.476 28.8125 185.152 28.2727 185.987 27.8864C186.828 27.5 187.751 27.3068 188.757 27.3068C189.837 27.3068 190.763 27.5256 191.536 27.9631C192.308 28.3949 192.902 28.9659 193.317 29.6761C193.732 30.3864 193.939 31.1534 193.939 31.9773C193.939 32.9602 193.68 33.7983 193.163 34.4915C192.652 35.1847 191.956 35.6648 191.075 35.9318V36.0682C192.178 36.25 193.038 36.7187 193.658 37.4744C194.277 38.2244 194.587 39.1534 194.587 40.2614C194.587 41.2102 194.328 42.0625 193.811 42.8182C193.3 43.5682 192.601 44.1591 191.714 44.5909C190.828 45.0227 189.82 45.2386 188.689 45.2386Z" fill="black"/>
<defs>
<linearGradient id="paint0_linear_1_5" x1="115.5" y1="0" x2="115.5" y2="73" gradientUnits="userSpaceOnUse">
<stop offset="0.82" stop-color="#3000DF"/>
<stop offset="1" stop-color="#CA19DA"/>
</linearGradient>
</defs>
</svg>
